AkatabNeo-Regular.ufo
<glyph name="three" format="2">
  <advance width="1042"/>
  <unicode hex="0033"/>
  <outline>
    <contour>
      <point x="496" y="-25" type="curve" smooth="yes"/>
      <point x="740" y="-25"/>
      <point x="937" y="120"/>
      <point x="937" y="358" type="curve" smooth="yes"/>
      <point x="937" y="544"/>
      <point x="804" y="664"/>
      <point x="641" y="702" type="curve"/>
      <point x="641" y="711" type="line"/>
      <point x="787" y="764"/>
      <point x="888" y="869"/>
      <point x="888" y="1032" type="curve" smooth="yes"/>
      <point x="888" y="1249"/>
      <point x="721" y="1372"/>
      <point x="489" y="1372" type="curve" smooth="yes"/>
      <point x="331" y="1372"/>
      <point x="208" y="1300"/>
      <point x="107" y="1205" type="curve"/>
      <point x="194" y="1101" type="line"/>
      <point x="274" y="1182"/>
      <point x="371" y="1239"/>
      <point x="485" y="1239" type="curve" smooth="yes"/>
      <point x="631" y="1239"/>
      <point x="724" y="1154"/>
      <point x="724" y="1021" type="curve" smooth="yes"/>
      <point x="724" y="878"/>
      <point x="624" y="764"/>
      <point x="335" y="764" type="curve"/>
      <point x="335" y="637" type="line"/>
      <point x="658" y="637"/>
      <point x="772" y="527"/>
      <point x="772" y="365" type="curve" smooth="yes"/>
      <point x="772" y="208"/>
      <point x="652" y="109"/>
      <point x="487" y="109" type="curve" smooth="yes"/>
      <point x="325" y="109"/>
      <point x="219" y="185"/>
      <point x="139" y="270" type="curve"/>
      <point x="56" y="164" type="line"/>
      <point x="145" y="67"/>
      <point x="280" y="-25"/>
    </contour>
  </outline>
</glyph>
<glyph name="four" format="2">
  <advance width="1042"/>
  <unicode hex="0034"/>
  <outline>
    <contour>
      <point x="643" y="0" type="line"/>
      <point x="795" y="0" type="line"/>
      <point x="795" y="1346" type="line"/>
      <point x="620" y="1346" type="line"/>
      <point x="35" y="481" type="line"/>
      <point x="35" y="375" type="line"/>
      <point x="983" y="375" type="line"/>
      <point x="983" y="506" type="line"/>
      <point x="208" y="506" type="line"/>
      <point x="534" y="981" type="line"/>
      <point x="572" y="1047"/>
      <point x="610" y="1104"/>
      <point x="643" y="1167" type="curve"/>
      <point x="652" y="1167" type="line"/>
      <point x="648" y="1097"/>
      <point x="643" y="983"/>
      <point x="643" y="914" type="curve" smooth="yes"/>
    </contour>
  </outline>
</glyph>
<glyph name="C" format="2">
  <advance width="1203"/>
  <unicode hex="0043"/>
  <anchor x="692" y="1433" name="aboveUC"/>
  <anchor x="721" y="0" name="baseLC"/>
  <anchor x="721" y="-46" name="belowLC"/>
  <outline>
    <contour>
      <point x="711" y="-25" type="curve" smooth="yes"/>
      <point x="888" y="-25"/>
      <point x="1023" y="46"/>
      <point x="1133" y="175" type="curve"/>
      <point x="1042" y="274" type="line"/>
      <point x="952" y="173"/>
      <point x="850" y="120"/>
      <point x="717" y="120" type="curve" smooth="yes"/>
      <point x="449" y="120"/>
      <point x="280" y="341"/>
      <point x="280" y="696" type="curve" smooth="yes"/>
      <point x="280" y="1047"/>
      <point x="455" y="1266"/>
      <point x="724" y="1266" type="curve" smooth="yes"/>
      <point x="842" y="1266"/>
      <point x="937" y="1215"/>
      <point x="1009" y="1137" type="curve"/>
      <point x="1099" y="1241" type="line"/>
      <point x="1019" y="1332"/>
      <point x="888" y="1412"/>
      <point x="721" y="1412" type="curve" smooth="yes"/>
      <point x="369" y="1412"/>
      <point x="109" y="1137"/>
      <point x="109" y="692" type="curve" smooth="yes"/>
      <point x="109" y="242"/>
      <point x="365" y="-25"/>
    </contour>
  </outline>
</glyph>
<glyph name="M" format="2">
  <advance width="1528"/>
  <unicode hex="004D"/>
  <anchor x="762" y="1433" name="aboveUC"/>
  <anchor x="766" y="-46" name="belowLC"/>
  <outline>
    <contour>
      <point x="192" y="0" type="line"/>
      <point x="339" y="0" type="line"/>
      <point x="339" y="785" type="line" smooth="yes"/>
      <point x="339" y="905"/>
      <point x="329" y="1080"/>
      <point x="320" y="1203" type="curve"/>
      <point x="329" y="1203" type="line"/>
      <point x="439" y="876" type="line"/>
      <point x="705" y="141" type="line"/>
      <point x="819" y="141" type="line"/>
      <point x="1085" y="876" type="line"/>
      <point x="1194" y="1203" type="line"/>
      <point x="1203" y="1203" type="line"/>
      <point x="1194" y="1080"/>
      <point x="1182" y="905"/>
      <point x="1182" y="785" type="curve" smooth="yes"/>
      <point x="1182" y="0" type="line"/>
      <point x="1336" y="0" type="line"/>
      <point x="1336" y="1386" type="line"/>
      <point x="1133" y="1386" type="line"/>
      <point x="867" y="635" type="line"/>
      <point x="833" y="538"/>
      <point x="804" y="441"/>
      <point x="770" y="344" type="curve"/>
      <point x="762" y="344" type="line"/>
      <point x="728" y="441"/>
      <point x="696" y="538"/>
      <point x="662" y="635" type="curve"/>
      <point x="392" y="1386" type="line"/>
      <point x="192" y="1386" type="line"/>
    </contour>
  </outline>
</glyph>
<glyph name="O" format="2">
  <advance width="1397"/>
  <unicode hex="004F"/>
  <anchor x="698" y="1433" name="aboveUC"/>
  <anchor x="698" y="-46" name="belowLC"/>
  <anchor x="985" y="1365" name="hornLC"/>
  <anchor x="698" y="0" name="ogonekUC"/>
  <outline>
    <contour>
      <point x="698" y="-25" type="curve" smooth="yes"/>
      <point x="1044" y="-25"/>
      <point x="1287" y="255"/>
      <point x="1287" y="698" type="curve" smooth="yes"/>
      <point x="1287" y="1139"/>
      <point x="1044" y="1412"/>
      <point x="698" y="1412" type="curve" smooth="yes"/>
      <point x="352" y="1412"/>
      <point x="109" y="1142"/>
      <point x="109" y="698" type="curve" smooth="yes"/>
      <point x="109" y="255"/>
      <point x="352" y="-25"/>
    </contour>
    <contour>
      <point x="698" y="120" type="curve" smooth="yes"/>
      <point x="447" y="120"/>
      <point x="280" y="346"/>
      <point x="280" y="698" type="curve" smooth="yes"/>
      <point x="280" y="1049"/>
      <point x="447" y="1266"/>
      <point x="698" y="1266" type="curve" smooth="yes"/>
      <point x="952" y="1266"/>
      <point x="1118" y="1049"/>
      <point x="1118" y="698" type="curve" smooth="yes"/>
      <point x="1118" y="346"/>
      <point x="952" y="120"/>
    </contour>
  </outline>
</glyph>
<glyph name="S" format="2">
  <advance width="1123"/>
  <unicode hex="0053"/>
  <anchor x="588" y="1433" name="aboveUC"/>
  <anchor x="574" y="0" name="baseLC"/>
  <anchor x="574" y="-46" name="belowLC"/>
  <outline>
    <contour>
      <point x="572" y="-25" type="curve" smooth="yes"/>
      <point x="861" y="-25"/>
      <point x="1040" y="147"/>
      <point x="1040" y="365" type="curve" smooth="yes"/>
      <point x="1040" y="572"/>
      <point x="914" y="667"/>
      <point x="753" y="736" type="curve" smooth="yes"/>
      <point x="555" y="821" type="line" smooth="yes"/>
      <point x="447" y="867"/>
      <point x="325" y="920"/>
      <point x="325" y="1057" type="curve" smooth="yes"/>
      <point x="325" y="1184"/>
      <point x="430" y="1266"/>
      <point x="588" y="1266" type="curve" smooth="yes"/>
      <point x="711" y="1266"/>
      <point x="819" y="1215"/>
      <point x="903" y="1135" type="curve"/>
      <point x="994" y="1245" type="line"/>
      <point x="899" y="1340"/>
      <point x="757" y="1412"/>
      <point x="588" y="1412" type="curve" smooth="yes"/>
      <point x="341" y="1412"/>
      <point x="158" y="1258"/>
      <point x="158" y="1047" type="curve" smooth="yes"/>
      <point x="158" y="844"/>
      <point x="310" y="747"/>
      <point x="439" y="692" type="curve" smooth="yes"/>
      <point x="639" y="603" type="line" smooth="yes"/>
      <point x="770" y="544"/>
      <point x="873" y="500"/>
      <point x="873" y="352" type="curve" smooth="yes"/>
      <point x="873" y="213"/>
      <point x="762" y="120"/>
      <point x="574" y="120" type="curve" smooth="yes"/>
      <point x="426" y="120"/>
      <point x="282" y="183"/>
      <point x="183" y="291" type="curve"/>
      <point x="90" y="181" type="line"/>
      <point x="208" y="54"/>
      <point x="373" y="-25"/>
    </contour>
  </outline>
</glyph>
<glyph name="U" format="2">
  <advance width="1359"/>
  <unicode hex="0055"/>
  <anchor x="677" y="1433" name="aboveUC"/>
  <anchor x="677" y="-46" name="belowLC"/>
  <anchor x="1106" y="1408" name="hornLC"/>
  <anchor x="677" y="0" name="ogonekUC"/>
  <outline>
    <contour>
      <point x="679" y="-25" type="curve" smooth="yes"/>
      <point x="956" y="-25"/>
      <point x="1173" y="122"/>
      <point x="1173" y="565" type="curve" smooth="yes"/>
      <point x="1173" y="1386" type="line"/>
      <point x="1015" y="1386" type="line"/>
      <point x="1015" y="563" type="line" smooth="yes"/>
      <point x="1015" y="225"/>
      <point x="865" y="120"/>
      <point x="679" y="120" type="curve" smooth="yes"/>
      <point x="496" y="120"/>
      <point x="350" y="225"/>
      <point x="350" y="563" type="curve" smooth="yes"/>
      <point x="350" y="1386" type="line"/>
      <point x="185" y="1386" type="line"/>
      <point x="185" y="565" type="line" smooth="yes"/>
      <point x="185" y="122"/>
      <point x="403" y="-25"/>
    </contour>
  </outline>
</glyph>
<glyph name="backslash" format="2">
  <advance width="740"/>
  <unicode hex="005C"/>
  <outline>
    <contour>
      <point x="601" y="-337" type="line"/>
      <point x="719" y="-337" type="line"/>
      <point x="145" y="1498" type="line"/>
      <point x="27" y="1498" type="line"/>
    </contour>
  </outline>
</glyph>
<glyph name="asciicircum" format="2">
  <advance width="1042"/>
  <unicode hex="005E"/>
  <outline>
    <contour>
      <point x="128" y="601" type="line"/>
      <point x="270" y="601" type="line"/>
      <point x="413" y="981" type="line"/>
      <point x="517" y="1262" type="line"/>
      <point x="525" y="1262" type="line"/>
      <point x="631" y="981" type="line"/>
      <point x="772" y="601" type="line"/>
      <point x="914" y="601" type="line"/>
      <point x="595" y="1414" type="line"/>
      <point x="449" y="1414" type="line"/>
    </contour>
  </outline>
</glyph>
<glyph name="k" format="2">
  <advance width="1034"/>
  <unicode hex="006B"/>
  <anchor x="603" y="1534" name="aboveUC"/>
  <anchor x="576" y="-46" name="belowLC"/>
  <outline>
    <contour>
      <point x="175" y="0" type="line"/>
      <point x="335" y="0" type="line"/>
      <point x="335" y="272" type="line"/>
      <point x="534" y="500" type="line"/>
      <point x="838" y="0" type="line"/>
      <point x="1015" y="0" type="line"/>
      <point x="626" y="612" type="line"/>
      <point x="968" y="1023" type="line"/>
      <point x="787" y="1023" type="line"/>
      <point x="341" y="474" type="line"/>
      <point x="335" y="474" type="line"/>
      <point x="335" y="1505" type="line"/>
      <point x="175" y="1505" type="line"/>
    </contour>
  </outline>
</glyph>
<glyph name="l" format="2">
  <advance width="531"/>
  <unicode hex="006C"/>
  <anchor x="259" y="1534" name="aboveUC"/>
  <anchor x="301" y="-46" name="belowLC"/>
  <outline>
    <contour>
      <point x="350" y="-25" type="curve" smooth="yes"/>
      <point x="390" y="-25"/>
      <point x="422" y="-18"/>
      <point x="445" y="-8" type="curve"/>
      <point x="424" y="113" type="line"/>
      <point x="407" y="109"/>
      <point x="398" y="109"/>
      <point x="388" y="109" type="curve" smooth="yes"/>
      <point x="360" y="109"/>
      <point x="337" y="128"/>
      <point x="337" y="183" type="curve" smooth="yes"/>
      <point x="337" y="1505" type="line"/>
      <point x="175" y="1505" type="line"/>
      <point x="175" y="196" type="line" smooth="yes"/>
      <point x="175" y="52"/>
      <point x="227" y="-25"/>
    </contour>
  </outline>
</glyph>
<glyph name="v" format="2">
  <advance width="975"/>
  <unicode hex="0076"/>
  <anchor x="489" y="1074" name="aboveLC"/>
  <anchor x="489" y="-46" name="belowLC"/>
  <outline>
    <contour>
      <point x="396" y="0" type="line"/>
      <point x="584" y="0" type="line"/>
      <point x="949" y="1023" type="line"/>
      <point x="791" y="1023" type="line"/>
      <point x="591" y="434" type="line" smooth="yes"/>
      <point x="561" y="333"/>
      <point x="527" y="230"/>
      <point x="496" y="132" type="curve"/>
      <point x="487" y="132" type="line"/>
      <point x="455" y="230"/>
      <point x="422" y="333"/>
      <point x="392" y="434" type="curve" smooth="yes"/>
      <point x="192" y="1023" type="line"/>
      <point x="25" y="1023" type="line"/>
    </contour>
  </outline>
</glyph>
<glyph name="w" format="2">
  <advance width="1505"/>
  <unicode hex="0077"/>
  <anchor x="753" y="1074" name="aboveLC"/>
  <anchor x="753" y="-46" name="belowLC"/>
  <outline>
    <contour>
      <point x="337" y="0" type="line"/>
      <point x="527" y="0" type="line"/>
      <point x="675" y="561" type="line"/>
      <point x="705" y="658"/>
      <point x="726" y="755"/>
      <point x="747" y="857" type="curve"/>
      <point x="755" y="857" type="line"/>
      <point x="781" y="755"/>
      <point x="802" y="660"/>
      <point x="827" y="563" type="curve"/>
      <point x="979" y="0" type="line"/>
      <point x="1177" y="0" type="line"/>
      <point x="1454" y="1023" type="line"/>
      <point x="1300" y="1023" type="line"/>
      <point x="1146" y="422" type="line"/>
      <point x="1123" y="325"/>
      <point x="1104" y="234"/>
      <point x="1080" y="137" type="curve"/>
      <point x="1072" y="137" type="line"/>
      <point x="1049" y="234"/>
      <point x="1025" y="325"/>
      <point x="1000" y="422" type="curve"/>
      <point x="838" y="1023" type="line"/>
      <point x="675" y="1023" type="line"/>
      <point x="515" y="422" type="line"/>
      <point x="489" y="327"/>
      <point x="466" y="234"/>
      <point x="443" y="137" type="curve"/>
      <point x="434" y="137" type="line"/>
      <point x="415" y="234"/>
      <point x="396" y="325"/>
      <point x="373" y="422" type="curve"/>
      <point x="215" y="1023" type="line"/>
      <point x="50" y="1023" type="line"/>
    </contour>
  </outline>
</glyph>
<glyph name="asciitilde" format="2">
  <advance width="1042"/>
  <unicode hex="007E"/>
  <outline>
    <contour>
      <point x="707" y="544" type="curve" smooth="yes"/>
      <point x="797" y="544"/>
      <point x="890" y="601"/>
      <point x="966" y="730" type="curve"/>
      <point x="873" y="797" type="line"/>
      <point x="825" y="705"/>
      <point x="772" y="667"/>
      <point x="711" y="667" type="curve" smooth="yes"/>
      <point x="593" y="667"/>
      <point x="502" y="848"/>
      <point x="335" y="848" type="curve" smooth="yes"/>
      <point x="246" y="848"/>
      <point x="151" y="791"/>
      <point x="78" y="658" type="curve"/>
      <point x="168" y="595" type="line"/>
      <point x="217" y="688"/>
      <point x="270" y="726"/>
      <point x="331" y="726" type="curve" smooth="yes"/>
      <point x="451" y="726"/>
      <point x="542" y="544"/>
    </contour>
  </outline>
</glyph>
<glyph name="cent" format="2">
  <advance width="1042"/>
  <unicode hex="00A2"/>
  <outline>
    <contour>
      <point x="620" y="149" type="curve" smooth="yes"/>
      <point x="745" y="149"/>
      <point x="861" y="202"/>
      <point x="954" y="282" type="curve"/>
      <point x="880" y="386" type="line"/>
      <point x="816" y="331"/>
      <point x="734" y="284"/>
      <point x="635" y="284" type="curve" smooth="yes"/>
      <point x="422" y="284"/>
      <point x="289" y="432"/>
      <point x="289" y="654" type="curve" smooth="yes"/>
      <point x="289" y="878"/>
      <point x="430" y="1023"/>
      <point x="639" y="1023" type="curve" smooth="yes"/>
      <point x="721" y="1023"/>
      <point x="791" y="987"/>
      <point x="852" y="933" type="curve"/>
      <point x="933" y="1036" type="line"/>
      <point x="863" y="1101"/>
      <point x="768" y="1158"/>
      <point x="633" y="1158" type="curve" smooth="yes"/>
      <point x="358" y="1158"/>
      <point x="128" y="979"/>
      <point x="128" y="654" type="curve" smooth="yes"/>
      <point x="128" y="331"/>
      <point x="333" y="149"/>
    </contour>
    <contour>
      <point x="550" y="-67" type="line"/>
      <point x="654" y="-67" type="line"/>
      <point x="654" y="1378" type="line"/>
      <point x="550" y="1378" type="line"/>
    </contour>
  </outline>
</glyph>
<glyph name="sterling" format="2">
  <advance width="1042"/>
  <unicode hex="00A3"/>
  <outline>
    <contour>
      <point x="113" y="0" type="line"/>
      <point x="947" y="0" type="line"/>
      <point x="947" y="139" type="line"/>
      <point x="350" y="139" type="line"/>
      <point x="350" y="147" type="line"/>
      <point x="436" y="236"/>
      <point x="483" y="329"/>
      <point x="483" y="481" type="curve" smooth="yes"/>
      <point x="483" y="675"/>
      <point x="394" y="819"/>
      <point x="394" y="983" type="curve" smooth="yes"/>
      <point x="394" y="1129"/>
      <point x="479" y="1237"/>
      <point x="633" y="1237" type="curve" smooth="yes"/>
      <point x="734" y="1237"/>
      <point x="802" y="1199"/>
      <point x="857" y="1127" type="curve"/>
      <point x="945" y="1209" type="line"/>
      <point x="878" y="1304"/>
      <point x="772" y="1372"/>
      <point x="620" y="1372" type="curve" smooth="yes"/>
      <point x="390" y="1372"/>
      <point x="234" y="1224"/>
      <point x="234" y="987" type="curve" smooth="yes"/>
      <point x="234" y="819"/>
      <point x="337" y="656"/>
      <point x="337" y="483" type="curve" smooth="yes"/>
      <point x="337" y="322"/>
      <point x="259" y="177"/>
      <point x="113" y="99" type="curve"/>
    </contour>
    <contour>
      <point x="111" y="603" type="line"/>
      <point x="785" y="603" type="line"/>
      <point x="785" y="715" type="line"/>
      <point x="253" y="715" type="line"/>
      <point x="111" y="709" type="line"/>
    </contour>
  </outline>
</glyph>
<glyph name="currency" format="2">
  <advance width="1042"/>
  <unicode hex="00A4"/>
  <outline>
    <contour>
      <point x="143" y="219" type="line"/>
      <point x="284" y="365" type="line"/>
      <point x="352" y="312"/>
      <point x="434" y="284"/>
      <point x="521" y="284" type="curve" smooth="yes"/>
      <point x="605" y="284"/>
      <point x="690" y="312"/>
      <point x="755" y="365" type="curve"/>
      <point x="899" y="219" type="line"/>
      <point x="985" y="310" type="line"/>
      <point x="850" y="447" type="line"/>
      <point x="897" y="515"/>
      <point x="928" y="597"/>
      <point x="928" y="694" type="curve" smooth="yes"/>
      <point x="928" y="791"/>
      <point x="899" y="876"/>
      <point x="848" y="943" type="curve"/>
      <point x="985" y="1082" type="line"/>
      <point x="899" y="1171" type="line"/>
      <point x="755" y="1025" type="line"/>
      <point x="690" y="1076"/>
      <point x="605" y="1106"/>
      <point x="521" y="1106" type="curve" smooth="yes"/>
      <point x="434" y="1106"/>
      <point x="352" y="1076"/>
      <point x="287" y="1025" type="curve"/>
      <point x="143" y="1171" type="line"/>
      <point x="56" y="1082" type="line"/>
      <point x="192" y="943" type="line"/>
      <point x="143" y="876"/>
      <point x="116" y="791"/>
      <point x="116" y="694" type="curve" smooth="yes"/>
      <point x="116" y="597"/>
      <point x="143" y="515"/>
      <point x="192" y="447" type="curve"/>
      <point x="56" y="310" type="line"/>
    </contour>
    <contour>
      <point x="521" y="405" type="curve" smooth="yes"/>
      <point x="382" y="405"/>
      <point x="265" y="521"/>
      <point x="265" y="694" type="curve" smooth="yes"/>
      <point x="265" y="865"/>
      <point x="382" y="983"/>
      <point x="521" y="983" type="curve" smooth="yes"/>
      <point x="660" y="983"/>
      <point x="776" y="865"/>
      <point x="776" y="694" type="curve" smooth="yes"/>
      <point x="776" y="521"/>
      <point x="660" y="405"/>
    </contour>
  </outline>
</glyph>
<glyph name="copyright" format="2">
  <advance width="1570"/>
  <unicode hex="00A9"/>
  <outline>
    <contour>
      <point x="785" y="-23" type="curve" smooth="yes"/>
      <point x="1152" y="-23"/>
      <point x="1467" y="251"/>
      <point x="1467" y="681" type="curve" smooth="yes"/>
      <point x="1467" y="1110"/>
      <point x="1152" y="1378"/>
      <point x="785" y="1378" type="curve" smooth="yes"/>
      <point x="417" y="1378"/>
      <point x="105" y="1110"/>
      <point x="105" y="681" type="curve" smooth="yes"/>
      <point x="105" y="251"/>
      <point x="417" y="-23"/>
    </contour>
    <contour>
      <point x="785" y="61" type="curve" smooth="yes"/>
      <point x="464" y="61"/>
      <point x="200" y="310"/>
      <point x="200" y="681" type="curve" smooth="yes"/>
      <point x="200" y="1051"/>
      <point x="464" y="1294"/>
      <point x="785" y="1294" type="curve" smooth="yes"/>
      <point x="1104" y="1294"/>
      <point x="1370" y="1051"/>
      <point x="1370" y="681" type="curve" smooth="yes"/>
      <point x="1370" y="310"/>
      <point x="1104" y="61"/>
    </contour>
    <contour>
      <point x="800" y="263" type="curve" smooth="yes"/>
      <point x="928" y="263"/>
      <point x="1009" y="312"/>
      <point x="1082" y="388" type="curve"/>
      <point x="1019" y="466" type="line"/>
      <point x="958" y="409"/>
      <point x="907" y="375"/>
      <point x="806" y="375" type="curve" smooth="yes"/>
      <point x="652" y="375"/>
      <point x="550" y="485"/>
      <point x="550" y="667" type="curve" smooth="yes"/>
      <point x="550" y="844"/>
      <point x="658" y="968"/>
      <point x="812" y="968" type="curve" smooth="yes"/>
      <point x="888" y="968"/>
      <point x="949" y="937"/>
      <point x="1000" y="882" type="curve"/>
      <point x="1072" y="954" type="line"/>
      <point x="1011" y="1025"/>
      <point x="926" y="1078"/>
      <point x="806" y="1078" type="curve" smooth="yes"/>
      <point x="603" y="1078"/>
      <point x="420" y="920"/>
      <point x="420" y="667" type="curve" smooth="yes"/>
      <point x="420" y="413"/>
      <point x="586" y="263"/>
    </contour>
  </outline>
</glyph>
<glyph name="registered" format="2">
  <advance width="886"/>
  <unicode hex="00AE"/>
  <outline>
    <contour>
      <point x="443" y="675" type="curve" smooth="yes"/>
      <point x="658" y="675"/>
      <point x="838" y="844"/>
      <point x="838" y="1089" type="curve" smooth="yes"/>
      <point x="838" y="1336"/>
      <point x="658" y="1505"/>
      <point x="443" y="1505" type="curve" smooth="yes"/>
      <point x="225" y="1505"/>
      <point x="48" y="1336"/>
      <point x="48" y="1089" type="curve" smooth="yes"/>
      <point x="48" y="844"/>
      <point x="225" y="675"/>
    </contour>
    <contour>
      <point x="443" y="749" type="curve" smooth="yes"/>
      <point x="265" y="749"/>
      <point x="128" y="888"/>
      <point x="128" y="1089" type="curve" smooth="yes"/>
      <point x="128" y="1289"/>
      <point x="265" y="1431"/>
      <point x="443" y="1431" type="curve" smooth="yes"/>
      <point x="620" y="1431"/>
      <point x="757" y="1289"/>
      <point x="757" y="1089" type="curve" smooth="yes"/>
      <point x="757" y="888"/>
      <point x="620" y="749"/>
    </contour>
    <contour>
      <point x="291" y="880" type="line"/>
      <point x="375" y="880" type="line"/>
      <point x="375" y="1030" type="line"/>
      <point x="462" y="1030" type="line"/>
      <point x="538" y="880" type="line"/>
      <point x="633" y="880" type="line"/>
      <point x="534" y="1057" type="line"/>
      <point x="582" y="1074"/>
      <point x="614" y="1123"/>
      <point x="614" y="1173" type="curve" smooth="yes"/>
      <point x="614" y="1275"/>
      <point x="536" y="1310"/>
      <point x="449" y="1310" type="curve" smooth="yes"/>
      <point x="291" y="1310" type="line"/>
    </contour>
    <contour>
      <point x="375" y="1097" type="line"/>
      <point x="375" y="1241" type="line"/>
      <point x="434" y="1241" type="line" smooth="yes"/>
      <point x="500" y="1241"/>
      <point x="525" y="1211"/>
      <point x="525" y="1167" type="curve" smooth="yes"/>
      <point x="525" y="1120"/>
      <point x="487" y="1097"/>
      <point x="430" y="1097" type="curve" smooth="yes"/>
    </contour>
  </outline>
</glyph>
<glyph name="AE" format="2">
  <advance width="1731"/>
  <unicode hex="00C6"/>
  <anchor x="1190" y="1433" name="aboveUC"/>
  <outline>
    <contour>
      <point x="21" y="0" type="line"/>
      <point x="194" y="0" type="line"/>
      <point x="610" y="797" type="line"/>
      <point x="688" y="949"/>
      <point x="766" y="1104"/>
      <point x="842" y="1256" type="curve"/>
      <point x="850" y="1256" type="line"/>
      <point x="850" y="0" type="line"/>
      <point x="1629" y="0" type="line"/>
      <point x="1629" y="139" type="line"/>
      <point x="1015" y="139" type="line"/>
      <point x="1015" y="658" type="line"/>
      <point x="1509" y="658" type="line"/>
      <point x="1509" y="800" type="line"/>
      <point x="1015" y="800" type="line"/>
      <point x="1015" y="1247" type="line"/>
      <point x="1608" y="1247" type="line"/>
      <point x="1608" y="1386" type="line"/>
      <point x="753" y="1386" type="line"/>
    </contour>
    <contour>
      <point x="337" y="411" type="line"/>
      <point x="952" y="411" type="line"/>
      <point x="952" y="544" type="line"/>
      <point x="337" y="544" type="line"/>
    </contour>
  </outline>
</glyph>
<glyph name="multiply" format="2">
  <advance width="1042"/>
  <unicode hex="00D7"/>
  <outline>
    <contour>
      <point x="194" y="268" type="line"/>
      <point x="521" y="607" type="line"/>
      <point x="848" y="268" type="line"/>
      <point x="937" y="358" type="line"/>
      <point x="610" y="696" type="line"/>
      <point x="937" y="1032" type="line"/>
      <point x="848" y="1123" type="line"/>
      <point x="521" y="783" type="line"/>
      <point x="194" y="1123" type="line"/>
      <point x="105" y="1032" type="line"/>
      <point x="434" y="696" type="line"/>
      <point x="105" y="358" type="line"/>
    </contour>
  </outline>
</glyph>
<glyph name="eth" format="2">
  <advance width="1146"/>
  <unicode hex="00F0"/>
  <anchor x="597" y="1534" name="aboveUC"/>
  <anchor x="569" y="-46" name="belowLC"/>
  <outline>
    <contour>
      <point x="565" y="-25" type="curve" smooth="yes"/>
      <point x="838" y="-25"/>
      <point x="1017" y="202"/>
      <point x="1017" y="542" type="curve" smooth="yes"/>
      <point x="1017" y="1087"/>
      <point x="702" y="1361"/>
      <point x="367" y="1538" type="curve"/>
      <point x="295" y="1435" type="line"/>
      <point x="626" y="1251"/>
      <point x="861" y="1036"/>
      <point x="861" y="534" type="curve" smooth="yes"/>
      <point x="861" y="284"/>
      <point x="766" y="109"/>
      <point x="569" y="109" type="curve" smooth="yes"/>
      <point x="405" y="109"/>
      <point x="268" y="253"/>
      <point x="268" y="468" type="curve" smooth="yes"/>
      <point x="268" y="664"/>
      <point x="377" y="814"/>
      <point x="572" y="814" type="curve" smooth="yes"/>
      <point x="671" y="814"/>
      <point x="770" y="781"/>
      <point x="869" y="639" type="curve"/>
      <point x="867" y="753" type="line"/>
      <point x="793" y="882"/>
      <point x="675" y="941"/>
      <point x="548" y="941" type="curve" smooth="yes"/>
      <point x="301" y="941"/>
      <point x="113" y="753"/>
      <point x="113" y="468" type="curve" smooth="yes"/>
      <point x="113" y="160"/>
      <point x="331" y="-25"/>
    </contour>
    <contour>
      <point x="310" y="1059" type="line"/>
      <point x="1006" y="1416" type="line"/>
      <point x="958" y="1500" type="line"/>
      <point x="261" y="1142" type="line"/>
    </contour>
  </outline>
</glyph>
<glyph name="thorn" format="2">
  <advance width="1167"/>
  <unicode hex="00FE"/>
  <anchor x="500" y="1534" name="aboveUC"/>
  <anchor x="274" y="-445" name="belowLC"/>
  <outline>
    <contour>
      <point x="175" y="-436" type="line"/>
      <point x="337" y="-436" type="line"/>
      <point x="337" y="-86" type="line"/>
      <point x="335" y="90" type="line"/>
      <point x="430" y="16"/>
      <point x="523" y="-25"/>
      <point x="620" y="-25" type="curve" smooth="yes"/>
      <point x="857" y="-25"/>
      <point x="1066" y="179"/>
      <point x="1066" y="527" type="curve" smooth="yes"/>
      <point x="1066" y="844"/>
      <point x="922" y="1049"/>
      <point x="652" y="1049" type="curve" smooth="yes"/>
      <point x="538" y="1049"/>
      <point x="428" y="987"/>
      <point x="335" y="914" type="curve"/>
      <point x="337" y="1093" type="line"/>
      <point x="337" y="1505" type="line"/>
      <point x="175" y="1505" type="line"/>
    </contour>
    <contour>
      <point x="595" y="111" type="curve" smooth="yes"/>
      <point x="525" y="111"/>
      <point x="434" y="141"/>
      <point x="337" y="221" type="curve"/>
      <point x="337" y="768" type="line"/>
      <point x="441" y="863"/>
      <point x="531" y="914"/>
      <point x="620" y="914" type="curve" smooth="yes"/>
      <point x="819" y="914"/>
      <point x="899" y="755"/>
      <point x="899" y="525" type="curve" smooth="yes"/>
      <point x="899" y="270"/>
      <point x="770" y="111"/>
    </contour>
  </outline>
</glyph>
<glyph name="eng" format="2">
  <advance width="1148"/>
  <unicode hex="014B"/>
  <anchor x="618" y="1074" name="aboveLC"/>
  <anchor x="584" y="-445" name="belowLC"/>
  <outline>
    <contour>
      <point x="713" y="-462" type="curve" smooth="yes"/>
      <point x="911" y="-462"/>
      <point x="985" y="-335"/>
      <point x="985" y="-126" type="curve" smooth="yes"/>
      <point x="985" y="650" type="line" smooth="yes"/>
      <point x="985" y="911"/>
      <point x="888" y="1049"/>
      <point x="675" y="1049" type="curve" smooth="yes"/>
      <point x="534" y="1049"/>
      <point x="428" y="973"/>
      <point x="329" y="876" type="curve"/>
      <point x="325" y="876" type="line"/>
      <point x="310" y="1023" type="line"/>
      <point x="175" y="1023" type="line"/>
      <point x="175" y="0" type="line"/>
      <point x="337" y="0" type="line"/>
      <point x="337" y="745" type="line"/>
      <point x="443" y="852"/>
      <point x="519" y="909"/>
      <point x="624" y="909" type="curve" smooth="yes"/>
      <point x="766" y="909"/>
      <point x="825" y="823"/>
      <point x="825" y="629" type="curve" smooth="yes"/>
      <point x="825" y="-124" type="line" smooth="yes"/>
      <point x="825" y="-251"/>
      <point x="802" y="-329"/>
      <point x="696" y="-329" type="curve" smooth="yes"/>
      <point x="662" y="-329"/>
      <point x="624" y="-318"/>
      <point x="597" y="-310" type="curve"/>
      <point x="565" y="-432" type="line"/>
      <point x="601" y="-449"/>
      <point x="656" y="-462"/>
    </contour>
  </outline>
</glyph>
<glyph name="OE" format="2">
  <advance width="1783"/>
  <unicode hex="0152"/>
  <anchor x="1123" y="1433" name="aboveUC"/>
  <outline>
    <contour>
      <point x="776" y="0" type="curve" smooth="yes"/>
      <point x="1680" y="0" type="line"/>
      <point x="1680" y="139" type="line"/>
      <point x="1068" y="139" type="line"/>
      <point x="1068" y="658" type="line"/>
      <point x="1562" y="658" type="line"/>
      <point x="1562" y="800" type="line"/>
      <point x="1068" y="800" type="line"/>
      <point x="1068" y="1247" type="line"/>
      <point x="1659" y="1247" type="line"/>
      <point x="1659" y="1386" type="line"/>
      <point x="785" y="1386" type="line" smooth="yes"/>
      <point x="356" y="1386"/>
      <point x="109" y="1135"/>
      <point x="109" y="698" type="curve" smooth="yes"/>
      <point x="109" y="259"/>
      <point x="356" y="0"/>
    </contour>
    <contour>
      <point x="797" y="135" type="line" smooth="yes"/>
      <point x="455" y="135"/>
      <point x="280" y="344"/>
      <point x="280" y="698" type="curve" smooth="yes"/>
      <point x="280" y="1051"/>
      <point x="455" y="1251"/>
      <point x="797" y="1251" type="curve" smooth="yes"/>
      <point x="903" y="1251" type="line"/>
      <point x="903" y="135" type="line"/>
    </contour>
  </outline>
</glyph>
<glyph name="uni0194" format="2">
  <advance width="994"/>
  <unicode hex="0194"/>
  <anchor x="497" y="1433" name="aboveUC"/>
  <anchor x="497" y="-46" name="belowLC"/>
  <outline>
    <contour>
      <point x="497" y="-25" type="curve" smooth="yes"/>
      <point x="667" y="-25"/>
      <point x="757" y="87"/>
      <point x="757" y="241" type="curve" smooth="yes"/>
      <point x="757" y="344"/>
      <point x="712" y="434"/>
      <point x="585" y="615" type="curve"/>
      <point x="585" y="519" type="line"/>
      <point x="996" y="1386" type="line"/>
      <point x="825" y="1386" type="line"/>
      <point x="643" y="987" type="line"/>
      <point x="599" y="886"/>
      <point x="550" y="789"/>
      <point x="502" y="686" type="curve"/>
      <point x="493" y="686" type="line"/>
      <point x="444" y="789"/>
      <point x="404" y="886"/>
      <point x="359" y="987" type="curve"/>
      <point x="174" y="1386" type="line"/>
      <point x="0" y="1386" type="line"/>
      <point x="410" y="516" type="line"/>
      <point x="410" y="615" type="line"/>
      <point x="284" y="438"/>
      <point x="237" y="344"/>
      <point x="237" y="241" type="curve" smooth="yes"/>
      <point x="237" y="87"/>
      <point x="327" y="-25"/>
    </contour>
    <contour>
      <point x="497" y="120" type="curve" smooth="yes"/>
      <point x="434" y="120"/>
      <point x="394" y="167"/>
      <point x="394" y="233" type="curve" smooth="yes"/>
      <point x="394" y="309"/>
      <point x="416" y="371"/>
      <point x="491" y="472" type="curve"/>
      <point x="502" y="472" type="line"/>
      <point x="579" y="371"/>
      <point x="600" y="309"/>
      <point x="600" y="233" type="curve" smooth="yes"/>
      <point x="600" y="167"/>
      <point x="561" y="120"/>
    </contour>
  </outline>
</glyph>
<glyph name="ringcmb" format="2">
  <unicode hex="030A"/>
  <anchor x="0" y="1074" name="_aboveLC"/>
  <outline>
    <contour>
      <point x="0" y="1167" type="curve" smooth="yes"/>
      <point x="139" y="1167"/>
      <point x="227" y="1256"/>
      <point x="227" y="1374" type="curve" smooth="yes"/>
      <point x="227" y="1494"/>
      <point x="139" y="1581"/>
      <point x="0" y="1581" type="curve" smooth="yes"/>
      <point x="-139" y="1581"/>
      <point x="-227" y="1494"/>
      <point x="-227" y="1374" type="curve" smooth="yes"/>
      <point x="-227" y="1256"/>
      <point x="-139" y="1167"/>
    </contour>
    <contour>
      <point x="0" y="1241" type="curve" smooth="yes"/>
      <point x="-67" y="1241"/>
      <point x="-122" y="1294"/>
      <point x="-122" y="1374" type="curve" smooth="yes"/>
      <point x="-122" y="1454"/>
      <point x="-67" y="1507"/>
      <point x="0" y="1507" type="curve" smooth="yes"/>
      <point x="67" y="1507"/>
      <point x="122" y="1454"/>
      <point x="122" y="1374" type="curve" smooth="yes"/>
      <point x="122" y="1294"/>
      <point x="67" y="1241"/>
    </contour>
  </outline>
</glyph>
<glyph name="emdash" format="2">
  <advance width="1688"/>
  <unicode hex="2014"/>
  <outline>
    <contour>
      <point x="86" y="472" type="line"/>
      <point x="1602" y="472" type="line"/>
      <point x="1602" y="586" type="line"/>
      <point x="86" y="586" type="line"/>
    </contour>
  </outline>
</glyph>
<glyph name="quoteleft" format="2">
  <advance width="517"/>
  <unicode hex="2018"/>
  <outline>
    <contour>
      <point x="246" y="920" type="curve" smooth="yes"/>
      <point x="310" y="920"/>
      <point x="354" y="962"/>
      <point x="354" y="1032" type="curve" smooth="yes"/>
      <point x="354" y="1097"/>
      <point x="301" y="1133"/>
      <point x="246" y="1133" type="curve" smooth="yes"/>
      <point x="215" y="1133"/>
      <point x="194" y="1123"/>
      <point x="168" y="1097" type="curve"/>
      <point x="255" y="994" type="line"/>
      <point x="227" y="1129" type="line"/>
      <point x="227" y="1249"/>
      <point x="282" y="1323"/>
      <point x="386" y="1393" type="curve"/>
      <point x="337" y="1471" type="line"/>
      <point x="196" y="1389"/>
      <point x="120" y="1268"/>
      <point x="120" y="1104" type="curve" smooth="yes"/>
      <point x="120" y="985"/>
      <point x="166" y="920"/>
    </contour>
  </outline>
</glyph>
<glyph name="guilsinglright" format="2">
  <advance width="567"/>
  <unicode hex="203A"/>
  <outline>
    <contour>
      <point x="185" y="141" type="line"/>
      <point x="474" y="470" type="line"/>
      <point x="474" y="593" type="line"/>
      <point x="185" y="922" type="line"/>
      <point x="113" y="863" type="line"/>
      <point x="365" y="531" type="line"/>
      <point x="113" y="198" type="line"/>
    </contour>
  </outline>
</glyph>
<glyph name="greaterequal" format="2">
  <advance width="1042"/>
  <unicode hex="2265"/>
  <outline>
    <contour>
      <point x="71" y="322" type="line"/>
      <point x="971" y="648" type="line"/>
      <point x="971" y="795" type="line"/>
      <point x="71" y="1120" type="line"/>
      <point x="71" y="979" type="line"/>
      <point x="521" y="819" type="line"/>
      <point x="806" y="726" type="line"/>
      <point x="806" y="717" type="line"/>
      <point x="521" y="622" type="line"/>
      <point x="71" y="464" type="line"/>
    </contour>
    <contour>
      <point x="71" y="0" type="line"/>
      <point x="971" y="0" type="line"/>
      <point x="971" y="122" type="line"/>
      <point x="71" y="122" type="line"/>
    </contour>
  </outline>
</glyph>
<glyph name="yab-tifi" format="2">
  <advance width="1454"/>
  <unicode hex="2D31"/>
  <anchor x="733" y="1393" name="T"/>
  <outline>
    <contour>
      <point x="735" y="1420" type="curve" smooth="yes"/>
      <point x="393" y="1420"/>
      <point x="100" y="1072"/>
      <point x="100" y="675" type="curve" smooth="yes"/>
      <point x="100" y="278"/>
      <point x="373" y="-30"/>
      <point x="715" y="-30" type="curve" smooth="yes"/>
      <point x="1057" y="-30"/>
      <point x="1354" y="318"/>
      <point x="1354" y="715" type="curve" smooth="yes"/>
      <point x="1354" y="1112"/>
      <point x="1077" y="1420"/>
    </contour>
    <contour>
      <point x="707" y="1292" type="curve" smooth="yes"/>
      <point x="935" y="1292"/>
      <point x="1142" y="1055"/>
      <point x="1178" y="767" type="curve"/>
      <point x="1114" y="770"/>
      <point x="1039" y="770"/>
      <point x="958" y="770" type="curve" smooth="yes"/>
      <point x="718" y="770"/>
      <point x="705" y="761"/>
      <point x="485" y="761" type="curve" smooth="yes"/>
      <point x="347" y="761"/>
      <point x="304" y="762"/>
      <point x="271" y="762" type="curve"/>
      <point x="287" y="1066"/>
      <point x="467" y="1292"/>
    </contour>
    <contour>
      <point x="747" y="102" type="curve" smooth="yes"/>
      <point x="519" y="102"/>
      <point x="314" y="338"/>
      <point x="276" y="624" type="curve"/>
      <point x="336" y="621"/>
      <point x="402" y="621"/>
      <point x="485" y="621" type="curve" smooth="yes"/>
      <point x="705" y="621"/>
      <point x="718" y="630"/>
      <point x="958" y="630" type="curve" smooth="yes"/>
      <point x="1087" y="630"/>
      <point x="1145" y="629"/>
      <point x="1183" y="629" type="curve"/>
      <point x="1165" y="327"/>
      <point x="987" y="102"/>
    </contour>
  </outline>
</glyph>
<glyph name="yahBerberAcademy-tifi" format="2">
  <advance width="1454"/>
  <unicode hex="2D41"/>
  <anchor x="736" y="1393" name="T"/>
  <outline>
    <component base="_VerticalOval" xOffset="-8"/>
    <contour>
      <point x="234" y="-30" type="curve" smooth="yes"/>
      <point x="278" y="-30"/>
      <point x="317" y="-9"/>
      <point x="360" y="48" type="curve" smooth="yes"/>
      <point x="437" y="151"/>
      <point x="626" y="426"/>
      <point x="763" y="626" type="curve" smooth="yes"/>
      <point x="918" y="853"/>
      <point x="1142" y="1180"/>
      <point x="1250" y="1323" type="curve" smooth="yes"/>
      <point x="1265" y="1342"/>
      <point x="1280" y="1362"/>
      <point x="1280" y="1382" type="curve" smooth="yes"/>
      <point x="1280" y="1414"/>
      <point x="1230" y="1420"/>
      <point x="1205" y="1420" type="curve" smooth="yes"/>
      <point x="1164" y="1420"/>
      <point x="1126" y="1400"/>
      <point x="1082" y="1342" type="curve" smooth="yes"/>
      <point x="999" y="1233"/>
      <point x="821" y="976"/>
      <point x="697" y="794" type="curve" smooth="yes"/>
      <point x="529" y="547"/>
      <point x="292" y="201"/>
      <point x="192" y="68" type="curve" smooth="yes"/>
      <point x="180" y="53"/>
      <point x="161" y="24"/>
      <point x="161" y="8" type="curve" smooth="yes"/>
      <point x="161" y="-23"/>
      <point x="209" y="-30"/>
    </contour>
  </outline>
</glyph>
<glyph name="yath-tifi" format="2">
  <advance width="1279"/>
  <unicode hex="2D5D"/>
  <anchor x="690" y="1393" name="T"/>
  <outline>
    <contour>
      <point x="173" y="0" type="curve" smooth="yes"/>
      <point x="217" y="0"/>
      <point x="256" y="21"/>
      <point x="299" y="78" type="curve" smooth="yes"/>
      <point x="376" y="181"/>
      <point x="544" y="426"/>
      <point x="681" y="626" type="curve" smooth="yes"/>
      <point x="836" y="853"/>
      <point x="1041" y="1153"/>
      <point x="1149" y="1296" type="curve" smooth="yes"/>
      <point x="1164" y="1315"/>
      <point x="1179" y="1335"/>
      <point x="1179" y="1355" type="curve" smooth="yes"/>
      <point x="1179" y="1387"/>
      <point x="1129" y="1393"/>
      <point x="1104" y="1393" type="curve" smooth="yes"/>
      <point x="1063" y="1393"/>
      <point x="1025" y="1373"/>
      <point x="981" y="1315" type="curve" smooth="yes"/>
      <point x="898" y="1206"/>
      <point x="739" y="976"/>
      <point x="615" y="794" type="curve" smooth="yes"/>
      <point x="447" y="547"/>
      <point x="231" y="231"/>
      <point x="131" y="98" type="curve" smooth="yes"/>
      <point x="119" y="83"/>
      <point x="100" y="54"/>
      <point x="100" y="38" type="curve" smooth="yes"/>
      <point x="100" y="7"/>
      <point x="148" y="0"/>
    </contour>
    <contour>
      <point x="1052" y="0" type="curve" smooth="yes"/>
      <point x="1098" y="0"/>
      <point x="1153" y="56"/>
      <point x="1153" y="112" type="curve" smooth="yes"/>
      <point x="1153" y="156"/>
      <point x="1101" y="230"/>
      <point x="983" y="396" type="curve" smooth="yes"/>
      <point x="821" y="623"/>
      <point x="654" y="836"/>
      <point x="496" y="1068" type="curve" smooth="yes"/>
      <point x="449" y="1137"/>
      <point x="385" y="1232"/>
      <point x="338" y="1301" type="curve" smooth="yes"/>
      <point x="312" y="1340"/>
      <point x="319" y="1348"/>
      <point x="301" y="1374" type="curve" smooth="yes"/>
      <point x="292" y="1387"/>
      <point x="279" y="1393"/>
      <point x="265" y="1393" type="curve" smooth="yes"/>
      <point x="220" y="1393"/>
      <point x="166" y="1332"/>
      <point x="166" y="1281" type="curve" smooth="yes"/>
      <point x="166" y="1237"/>
      <point x="239" y="1130"/>
      <point x="350" y="970" type="curve" smooth="yes"/>
      <point x="511" y="739"/>
      <point x="675" y="529"/>
      <point x="837" y="299" type="curve" smooth="yes"/>
      <point x="931" y="166"/>
      <point x="959" y="123"/>
      <point x="980" y="90" type="curve" smooth="yes"/>
      <point x="1005" y="50"/>
      <point x="1000" y="44"/>
      <point x="1017" y="17" type="curve" smooth="yes"/>
      <point x="1026" y="5"/>
      <point x="1038" y="0"/>
    </contour>
  </outline>
</glyph>
<glyph name="one.dnom" format="2">
  <advance width="774"/>
  <outline>
    <contour>
      <point x="365" y="0" type="line"/>
      <point x="491" y="0" type="line"/>
      <point x="491" y="823" type="line"/>
      <point x="386" y="823" type="line"/>
      <point x="331" y="781"/>
      <point x="276" y="755"/>
      <point x="185" y="738" type="curve"/>
      <point x="185" y="654" type="line"/>
      <point x="365" y="654" type="line"/>
    </contour>
  </outline>
</glyph>
<glyph name="ringcmb.cap" format="2">
  <anchor x="0" y="1433" name="_aboveUC"/>
  <outline>
    <contour>
      <point x="0" y="1475" type="curve" smooth="yes"/>
      <point x="139" y="1475"/>
      <point x="230" y="1547"/>
      <point x="230" y="1663" type="curve" smooth="yes"/>
      <point x="230" y="1781"/>
      <point x="139" y="1855"/>
      <point x="0" y="1855" type="curve" smooth="yes"/>
      <point x="-139" y="1855"/>
      <point x="-230" y="1781"/>
      <point x="-230" y="1663" type="curve" smooth="yes"/>
      <point x="-230" y="1547"/>
      <point x="-139" y="1475"/>
    </contour>
    <contour>
      <point x="0" y="1547" type="curve" smooth="yes"/>
      <point x="-71" y="1547"/>
      <point x="-122" y="1589"/>
      <point x="-122" y="1663" type="curve" smooth="yes"/>
      <point x="-122" y="1741"/>
      <point x="-71" y="1781"/>
      <point x="0" y="1781" type="curve" smooth="yes"/>
      <point x="71" y="1781"/>
      <point x="122" y="1741"/>
      <point x="122" y="1663" type="curve" smooth="yes"/>
      <point x="122" y="1589"/>
      <point x="71" y="1547"/>
    </contour>
  </outline>
</glyph>
<glyph name="zero.dnom" format="2">
  <advance width="774"/>
  <outline>
    <contour>
      <point x="386" y="-25" type="curve" smooth="yes"/>
      <point x="576" y="-25"/>
      <point x="698" y="132"/>
      <point x="698" y="413" type="curve" smooth="yes"/>
      <point x="698" y="690"/>
      <point x="576" y="848"/>
      <point x="386" y="848" type="curve" smooth="yes"/>
      <point x="198" y="848"/>
      <point x="73" y="690"/>
      <point x="73" y="413" type="curve" smooth="yes"/>
      <point x="73" y="132"/>
      <point x="198" y="-25"/>
    </contour>
    <contour>
      <point x="386" y="75" type="curve" smooth="yes"/>
      <point x="274" y="75"/>
      <point x="198" y="192"/>
      <point x="198" y="413" type="curve" smooth="yes"/>
      <point x="198" y="635"/>
      <point x="274" y="747"/>
      <point x="386" y="747" type="curve" smooth="yes"/>
      <point x="498" y="747"/>
      <point x="574" y="635"/>
      <point x="574" y="413" type="curve" smooth="yes"/>
      <point x="574" y="192"/>
      <point x="498" y="75"/>
    </contour>
  </outline>
</glyph>
